<svg xmlns="http://www.w3.org/2000/svg" viewBox="0 0 512 512">
  <defs>
    <linearGradient id="leaf-gradient" x1="0" y1="0" x2="0" y2="1">
      <stop offset="0%" stop-color="#e63946"/>
      <stop offset="100%" stop-color="#e6a817"/>
    </linearGradient>
  </defs>
  <rect width="512" height="512" fill="#0f172a"/>
  <path fill="url(#leaf-gradient)" d="
    M 256,66
    L 273,169
    L 311,143
    L 291,186
    L 352,170
    L 327,198
    L 389,202
    L 345,228
    L 373,242
    L 330,248
    L 352,296
    L 303,274
    L 312,330
    L 282,310
    L 282,354
    L 264,338
    L 256,370
    L 248,338
    L 230,354
    L 230,310
    L 200,330
    L 209,274
    L 160,296
    L 182,248
    L 139,242
    L 167,228
    L 123,202
    L 185,198
    L 160,170
    L 221,186
    L 201,143
    L 239,169
    Z
    M 244,370 L 244,430 L 268,430 L 268,370 Z
  "/>
</svg>
